<?xml version="1.0" encoding="utf-8"?>
<!-- Generator: Adobe Illustrator 16.0.3, SVG Export Plug-In . SVG Version: 6.00 Build 0)  -->
<!DOCTYPE svg PUBLIC "-//W3C//DTD SVG 1.1//EN" "http://www.w3.org/Graphics/SVG/1.1/DTD/svg11.dtd">
<svg version="1.1" id="Layer_1" xmlns="http://www.w3.org/2000/svg" xmlns:xlink="http://www.w3.org/1999/xlink" x="0px" y="0px"
	 width="2834.65px" height="2834.65px" viewBox="0 0 2834.65 2834.65" enable-background="new 0 0 2834.65 2834.65"
	 xml:space="preserve">
<path fill="#0042FF" d="M1413.178,1014.603c174.841,0,316.566-141.726,316.566-316.567c0-174.831-141.725-316.557-316.566-316.557
	c-174.831,0-316.557,141.726-316.557,316.557C1096.621,872.876,1238.347,1014.603,1413.178,1014.603z"/>
<path fill="#0042FF" d="M1723.283,1167.308l-620.478,0.017c-3.301,0-6.185,3.124-6.185,6.501v496.035
	c0,3.594,2.914,6.504,6.501,6.521c171.79,3.152,310.088,143.389,310.088,315.924c0,172.48-137.371,315.525-309.302,315.525
	c-3.439,0-7.277,3.418-7.281,6.896l-0.006,124.922c0,3.586,2.938,6.49,6.519,6.516c58.275-0.047,149.728-1.346,255.271-36.527
	c270.924-88.27,371.389-353.109,371.389-639.254v-596.559C1729.801,1170.223,1726.885,1167.308,1723.283,1167.308z"/>
</svg>
